# xmcd CD database file
#
# Track frame offsets:
#	150
#	28203
#	45374
#	68257
#	92218
#	123557
#	137072
#	164259
#	196099
#
# Disc length: 2976 seconds
#
# Revision: 0
# Processed by: cddbd v1.4PL0 Copyright (c) Steve Scherf et al.
# Submitted via: CDex 1.51
#
DISCID=710b9e09
DTITLE=Sunna Gunnlaugs - Fagra Veröld
DYEAR=2002
DGENRE=Jazz
TTITLE0=Frá Lidnu Vori
TTITLE1=Ég Leyfi Mér Ad Dreyma
TTITLE2=Fagra Veröld
TTITLE3=Sumar Vid Sjó
TTITLE4=Margar Nætur
TTITLE5=Heim Nú Reikar Hugurinn
TTITLE6=Ég Mun Takast á Vid Heiminn
TTITLE7=Lestin Mikla
TTITLE8=Skipaskagi
EXTD=YEAR: 2002
EXTT0=
EXTT1=
EXTT2=
EXTT3=
EXTT4=
EXTT5=
EXTT6=
EXTT7=
EXTT8=
PLAYORDER=
